<?xml version="1.0" encoding="UTF-8" standalone="no"?>
<!-- Created with Inkscape (http://www.inkscape.org/) -->

<svg
   xmlns:dc="http://purl.org/dc/elements/1.1/"
   xmlns:cc="http://creativecommons.org/ns#"
   xmlns:rdf="http://www.w3.org/1999/02/22-rdf-syntax-ns#"
   xmlns:svg="http://www.w3.org/2000/svg"
   xmlns="http://www.w3.org/2000/svg"
   xmlns:sodipodi="http://sodipodi.sourceforge.net/DTD/sodipodi-0.dtd"
   xmlns:inkscape="http://www.inkscape.org/namespaces/inkscape"
   width="744.09448819"
   height="1052.3622047"
   id="svg2"
   version="1.1"
   inkscape:version="0.48.4 r9939"
   sodipodi:docname="circles.svg"
   inkscape:export-filename="D:\OpenGLEperemental\OpenGLTest\hanoj\hanoj_art\circles.png"
   inkscape:export-xdpi="90"
   inkscape:export-ydpi="90">
  <defs
     id="defs4" />
  <sodipodi:namedview
     id="base"
     pagecolor="#ffffff"
     bordercolor="#666666"
     borderopacity="1.0"
     inkscape:pageopacity="0.0"
     inkscape:pageshadow="2"
     inkscape:zoom="1"
     inkscape:cx="222.18482"
     inkscape:cy="138.04514"
     inkscape:document-units="px"
     inkscape:current-layer="layer1"
     showgrid="false"
     inkscape:window-width="1366"
     inkscape:window-height="721"
     inkscape:window-x="-4"
     inkscape:window-y="-4"
     inkscape:window-maximized="1" />
  <metadata
     id="metadata7">
    <rdf:RDF>
      <cc:Work
         rdf:about="">
        <dc:format>image/svg+xml</dc:format>
        <dc:type
           rdf:resource="http://purl.org/dc/dcmitype/StillImage" />
        <dc:title></dc:title>
      </cc:Work>
    </rdf:RDF>
  </metadata>
  <g
     inkscape:label="Layer 1"
     inkscape:groupmode="layer"
     id="layer1">
    <path
       sodipodi:type="arc"
       style="fill:#ff0000;fill-opacity:1;stroke:#000000;stroke-width:12.5440001;stroke-linecap:butt;stroke-miterlimit:4;stroke-opacity:1;stroke-dasharray:none"
       id="path2985"
       sodipodi:cx="367.85715"
       sodipodi:cy="555.93359"
       sodipodi:rx="155"
       sodipodi:ry="155"
       d="m 522.85715,555.93359 a 155,155 0 1 1 -310,0 155,155 0 1 1 310,0 z"
       transform="matrix(0.55803571,0,0,0.55803571,-89.563134,-170.72577)" />
    <path
       sodipodi:type="arc"
       style="fill:#ff0000;fill-opacity:1;stroke:#000000;stroke-width:16;stroke-linecap:butt;stroke-miterlimit:4;stroke-opacity:1;stroke-dasharray:none"
       id="path2985-1"
       sodipodi:cx="367.85715"
       sodipodi:cy="555.93359"
       sodipodi:rx="155"
       sodipodi:ry="155"
       d="m 522.85715,555.93359 a 155,155 0 1 1 -310,0 155,155 0 1 1 310,0 z"
       transform="matrix(0.4375,0,0,0.4375,150.49106,-113.71591)" />
    <path
       sodipodi:type="arc"
       style="fill:#ff0000;fill-opacity:1;stroke:#000000;stroke-width:25.74493395;stroke-linecap:butt;stroke-miterlimit:4;stroke-opacity:1;stroke-dasharray:none"
       id="path2985-1-7"
       sodipodi:cx="367.85715"
       sodipodi:cy="555.93359"
       sodipodi:rx="155"
       sodipodi:ry="155"
       d="m 522.85715,555.93359 a 155,155 0 1 1 -310,0 155,155 0 1 1 310,0 z"
       transform="matrix(0.23305556,0,0,0.23305556,374.26885,-2.9155159)" />
    <path
       sodipodi:type="arc"
       style="fill:#ff0000;fill-opacity:1;stroke:#000000;stroke-width:57.79335785;stroke-linecap:butt;stroke-miterlimit:4;stroke-opacity:1;stroke-dasharray:none"
       id="path2985-1-7-4"
       sodipodi:cx="367.85715"
       sodipodi:cy="555.93359"
       sodipodi:rx="155"
       sodipodi:ry="155"
       d="m 522.85715,555.93359 a 155,155 0 1 1 -310,0 155,155 0 1 1 310,0 z"
       transform="matrix(0.08651513,0,0,0.08651513,536.74622,75.694088)" />
    <path
       sodipodi:type="arc"
       style="fill:#fffe00;fill-opacity:1;stroke:#000000;stroke-width:12.54399967000000000;stroke-linecap:butt;stroke-miterlimit:4;stroke-opacity:1;stroke-dasharray:none"
       id="path2985-0"
       sodipodi:cx="367.85715"
       sodipodi:cy="555.93359"
       sodipodi:rx="155"
       sodipodi:ry="155"
       d="m 522.85715,555.93359 a 155,155 0 1 1 -310,0 155,155 0 1 1 310,0 z"
       transform="matrix(0.55803571,0,0,0.55803571,-94.66315,49.13138)" />
    <path
       sodipodi:type="arc"
       style="fill:#fffe00;fill-opacity:1;stroke:#000000;stroke-width:16;stroke-linecap:butt;stroke-miterlimit:4;stroke-opacity:1;stroke-dasharray:none"
       id="path2985-1-9"
       sodipodi:cx="367.85715"
       sodipodi:cy="555.93359"
       sodipodi:rx="155"
       sodipodi:ry="155"
       d="m 522.85715,555.93359 a 155,155 0 1 1 -310,0 155,155 0 1 1 310,0 z"
       transform="matrix(0.4375,0,0,0.4375,145.39104,106.14124)" />
    <path
       sodipodi:type="arc"
       style="fill:#fffe00;fill-opacity:1;stroke:#000000;stroke-width:25.74493408000000000;stroke-linecap:butt;stroke-miterlimit:4;stroke-opacity:1;stroke-dasharray:none"
       id="path2985-1-7-48"
       sodipodi:cx="367.85715"
       sodipodi:cy="555.93359"
       sodipodi:rx="155"
       sodipodi:ry="155"
       d="m 522.85715,555.93359 a 155,155 0 1 1 -310,0 155,155 0 1 1 310,0 z"
       transform="matrix(0.23305556,0,0,0.23305556,369.16883,216.94164)" />
    <path
       sodipodi:type="arc"
       style="fill:#fffe00;fill-opacity:1;stroke:#000000;stroke-width:57.79335784999998500;stroke-linecap:butt;stroke-miterlimit:4;stroke-opacity:1;stroke-dasharray:none"
       id="path2985-1-7-4-8"
       sodipodi:cx="367.85715"
       sodipodi:cy="555.93359"
       sodipodi:rx="155"
       sodipodi:ry="155"
       d="m 522.85715,555.93359 a 155,155 0 1 1 -310,0 155,155 0 1 1 310,0 z"
       transform="matrix(0.08651513,0,0,0.08651513,531.6462,295.55124)" />
    <path
       sodipodi:type="arc"
       style="fill:#00fe00;fill-opacity:1;stroke:#000000;stroke-width:12.54399967000000000;stroke-linecap:butt;stroke-miterlimit:4;stroke-opacity:1;stroke-dasharray:none"
       id="path2985-0-2"
       sodipodi:cx="367.85715"
       sodipodi:cy="555.93359"
       sodipodi:rx="155"
       sodipodi:ry="155"
       d="m 522.85715,555.93359 a 155,155 0 1 1 -310,0 155,155 0 1 1 310,0 z"
       transform="matrix(0.55803571,0,0,0.55803571,-84.663147,284.13138)" />
    <path
       sodipodi:type="arc"
       style="fill:#00fe00;fill-opacity:1;stroke:#000000;stroke-width:16;stroke-linecap:butt;stroke-miterlimit:4;stroke-opacity:1;stroke-dasharray:none"
       id="path2985-1-9-4"
       sodipodi:cx="367.85715"
       sodipodi:cy="555.93359"
       sodipodi:rx="155"
       sodipodi:ry="155"
       d="m 522.85715,555.93359 a 155,155 0 1 1 -310,0 155,155 0 1 1 310,0 z"
       transform="matrix(0.4375,0,0,0.4375,155.39104,341.14124)" />
    <path
       sodipodi:type="arc"
       style="fill:#00fe00;fill-opacity:1;stroke:#000000;stroke-width:25.74493408000000000;stroke-linecap:butt;stroke-miterlimit:4;stroke-opacity:1;stroke-dasharray:none"
       id="path2985-1-7-48-5"
       sodipodi:cx="367.85715"
       sodipodi:cy="555.93359"
       sodipodi:rx="155"
       sodipodi:ry="155"
       d="m 522.85715,555.93359 a 155,155 0 1 1 -310,0 155,155 0 1 1 310,0 z"
       transform="matrix(0.23305556,0,0,0.23305556,379.16883,451.94164)" />
    <path
       sodipodi:type="arc"
       style="fill:#00fe00;fill-opacity:1;stroke:#000000;stroke-width:57.79335784999998500;stroke-linecap:butt;stroke-miterlimit:4;stroke-opacity:1;stroke-dasharray:none"
       id="path2985-1-7-4-8-5"
       sodipodi:cx="367.85715"
       sodipodi:cy="555.93359"
       sodipodi:rx="155"
       sodipodi:ry="155"
       d="m 522.85715,555.93359 a 155,155 0 1 1 -310,0 155,155 0 1 1 310,0 z"
       transform="matrix(0.08651513,0,0,0.08651513,541.6462,530.55124)" />
    <path
       sodipodi:type="arc"
       style="fill:#0000ff;fill-opacity:1;stroke:#000000;stroke-width:12.54399967000000000;stroke-linecap:butt;stroke-miterlimit:4;stroke-opacity:1;stroke-dasharray:none"
       id="path2985-0-1"
       sodipodi:cx="367.85715"
       sodipodi:cy="555.93359"
       sodipodi:rx="155"
       sodipodi:ry="155"
       d="m 522.85715,555.93359 a 155,155 0 1 1 -310,0 155,155 0 1 1 310,0 z"
       transform="matrix(0.55803571,0,0,0.55803571,-72.66315,545.13138)" />
    <path
       sodipodi:type="arc"
       style="fill:#0000ff;fill-opacity:1;stroke:#000000;stroke-width:16;stroke-linecap:butt;stroke-miterlimit:4;stroke-opacity:1;stroke-dasharray:none"
       id="path2985-1-9-7"
       sodipodi:cx="367.85715"
       sodipodi:cy="555.93359"
       sodipodi:rx="155"
       sodipodi:ry="155"
       d="m 522.85715,555.93359 a 155,155 0 1 1 -310,0 155,155 0 1 1 310,0 z"
       transform="matrix(0.4375,0,0,0.4375,167.39104,602.14124)" />
    <path
       sodipodi:type="arc"
       style="fill:#0000ff;fill-opacity:1;stroke:#000000;stroke-width:25.74493408000000000;stroke-linecap:butt;stroke-miterlimit:4;stroke-opacity:1;stroke-dasharray:none"
       id="path2985-1-7-48-1"
       sodipodi:cx="367.85715"
       sodipodi:cy="555.93359"
       sodipodi:rx="155"
       sodipodi:ry="155"
       d="m 522.85715,555.93359 a 155,155 0 1 1 -310,0 155,155 0 1 1 310,0 z"
       transform="matrix(0.23305556,0,0,0.23305556,391.16883,712.94164)" />
    <path
       sodipodi:type="arc"
       style="fill:#0000ff;fill-opacity:1;stroke:#000000;stroke-width:57.79335784999998500;stroke-linecap:butt;stroke-miterlimit:4;stroke-opacity:1;stroke-dasharray:none"
       id="path2985-1-7-4-8-1"
       sodipodi:cx="367.85715"
       sodipodi:cy="555.93359"
       sodipodi:rx="155"
       sodipodi:ry="155"
       d="m 522.85715,555.93359 a 155,155 0 1 1 -310,0 155,155 0 1 1 310,0 z"
       transform="matrix(0.08651513,0,0,0.08651513,553.6462,791.55124)" />
  </g>
</svg>
